<mxfile host="app.diagrams.net" modified="2024-07-17T08:14:33.465Z" agent="Mozilla/5.0 (Windows NT 10.0; Win64; x64) AppleWebKit/537.36 (KHTML, like Gecko) Chrome/126.0.0.0 Safari/537.36" etag="Ir4DktPuPjvAX43Czn6h" version="24.7.0" type="github">
  <diagram id="R2lEEEUBdFMjLlhIrx00" name="Page-1">
    <mxGraphModel dx="1674" dy="1838" grid="1" gridSize="10" guides="1" tooltips="1" connect="1" arrows="1" fold="1" page="1" pageScale="1" pageWidth="850" pageHeight="1100" math="0" shadow="0" extFonts="Permanent Marker^https://fonts.googleapis.com/css?family=Permanent+Marker">
      <root>
        <mxCell id="0" />
        <mxCell id="1" parent="0" />
        <mxCell id="2hIha3AuT46qeZUcsrXO-1" value="" style="group" vertex="1" connectable="0" parent="1">
          <mxGeometry x="120" y="-210" width="390" height="200" as="geometry" />
        </mxCell>
        <mxCell id="2hIha3AuT46qeZUcsrXO-2" value="결재(approval)" style="shape=table;startSize=30;container=1;collapsible=1;childLayout=tableLayout;fixedRows=1;rowLines=0;fontStyle=1;align=center;resizeLast=1;" vertex="1" parent="2hIha3AuT46qeZUcsrXO-1">
          <mxGeometry width="390" height="170" as="geometry" />
        </mxCell>
        <mxCell id="2hIha3AuT46qeZUcsrXO-3" value="" style="shape=partialRectangle;collapsible=0;dropTarget=0;pointerEvents=0;fillColor=none;points=[[0,0.5],[1,0.5]];portConstraint=eastwest;top=0;left=0;right=0;bottom=1;" vertex="1" parent="2hIha3AuT46qeZUcsrXO-2">
          <mxGeometry y="30" width="390" height="30" as="geometry" />
        </mxCell>
        <mxCell id="2hIha3AuT46qeZUcsrXO-4" value="PK" style="shape=partialRectangle;overflow=hidden;connectable=0;fillColor=none;top=0;left=0;bottom=0;right=0;fontStyle=1;" vertex="1" parent="2hIha3AuT46qeZUcsrXO-3">
          <mxGeometry width="30" height="30" as="geometry">
            <mxRectangle width="30" height="30" as="alternateBounds" />
          </mxGeometry>
        </mxCell>
        <mxCell id="2hIha3AuT46qeZUcsrXO-5" value="approval_his int auto_increment NOT NULL(결재 고유 번호)" style="shape=partialRectangle;overflow=hidden;connectable=0;fillColor=none;top=0;left=0;bottom=0;right=0;align=left;spacingLeft=6;fontStyle=1;" vertex="1" parent="2hIha3AuT46qeZUcsrXO-3">
          <mxGeometry x="30" width="360" height="30" as="geometry">
            <mxRectangle width="360" height="30" as="alternateBounds" />
          </mxGeometry>
        </mxCell>
        <mxCell id="2hIha3AuT46qeZUcsrXO-6" value="" style="shape=partialRectangle;collapsible=0;dropTarget=0;pointerEvents=0;fillColor=none;points=[[0,0.5],[1,0.5]];portConstraint=eastwest;top=0;left=0;right=0;bottom=0;" vertex="1" parent="2hIha3AuT46qeZUcsrXO-2">
          <mxGeometry y="60" width="390" height="110" as="geometry" />
        </mxCell>
        <mxCell id="2hIha3AuT46qeZUcsrXO-7" value="" style="shape=partialRectangle;overflow=hidden;connectable=0;fillColor=none;top=0;left=0;bottom=0;right=0;" vertex="1" parent="2hIha3AuT46qeZUcsrXO-6">
          <mxGeometry width="30" height="110" as="geometry">
            <mxRectangle width="30" height="110" as="alternateBounds" />
          </mxGeometry>
        </mxCell>
        <mxCell id="2hIha3AuT46qeZUcsrXO-8" value="" style="shape=partialRectangle;overflow=hidden;connectable=0;fillColor=none;top=0;left=0;bottom=0;right=0;align=left;spacingLeft=6;" vertex="1" parent="2hIha3AuT46qeZUcsrXO-6">
          <mxGeometry x="30" width="360" height="110" as="geometry">
            <mxRectangle width="360" height="110" as="alternateBounds" />
          </mxGeometry>
        </mxCell>
        <mxCell id="2hIha3AuT46qeZUcsrXO-9" value="document_id int NOT NULL(문서 ID)" style="shape=partialRectangle;overflow=hidden;connectable=0;fillColor=none;top=0;left=0;bottom=0;right=0;align=left;spacingLeft=6;" vertex="1" parent="2hIha3AuT46qeZUcsrXO-1">
          <mxGeometry x="30" y="65" width="300" height="30" as="geometry">
            <mxRectangle width="300" height="30" as="alternateBounds" />
          </mxGeometry>
        </mxCell>
        <mxCell id="2hIha3AuT46qeZUcsrXO-10" value="approver_id int NOT NULL(결재자 ID)" style="shape=partialRectangle;overflow=hidden;connectable=0;fillColor=none;top=0;left=0;bottom=0;right=0;align=left;spacingLeft=6;" vertex="1" parent="2hIha3AuT46qeZUcsrXO-1">
          <mxGeometry x="30" y="85" width="300" height="30" as="geometry">
            <mxRectangle width="300" height="30" as="alternateBounds" />
          </mxGeometry>
        </mxCell>
        <mxCell id="2hIha3AuT46qeZUcsrXO-11" value="comment TEXT (결재자 피드백 코멘트)" style="shape=partialRectangle;overflow=hidden;connectable=0;fillColor=none;top=0;left=0;bottom=0;right=0;align=left;spacingLeft=6;" vertex="1" parent="2hIha3AuT46qeZUcsrXO-1">
          <mxGeometry x="30" y="110" width="300" height="30" as="geometry">
            <mxRectangle width="300" height="30" as="alternateBounds" />
          </mxGeometry>
        </mxCell>
        <mxCell id="2hIha3AuT46qeZUcsrXO-12" value="end_day DATETIME(결재 완료일)" style="shape=partialRectangle;overflow=hidden;connectable=0;fillColor=none;top=0;left=0;bottom=0;right=0;align=left;spacingLeft=6;" vertex="1" parent="2hIha3AuT46qeZUcsrXO-1">
          <mxGeometry x="30" y="130" width="300" height="30" as="geometry">
            <mxRectangle width="300" height="30" as="alternateBounds" />
          </mxGeometry>
        </mxCell>
        <mxCell id="2hIha3AuT46qeZUcsrXO-13" value="FK" style="shape=partialRectangle;overflow=hidden;connectable=0;fillColor=none;top=0;left=0;bottom=0;right=0;fontStyle=1;" vertex="1" parent="2hIha3AuT46qeZUcsrXO-1">
          <mxGeometry y="65" width="30" height="30" as="geometry">
            <mxRectangle width="30" height="30" as="alternateBounds" />
          </mxGeometry>
        </mxCell>
        <mxCell id="2hIha3AuT46qeZUcsrXO-14" value="FK" style="shape=partialRectangle;overflow=hidden;connectable=0;fillColor=none;top=0;left=0;bottom=0;right=0;fontStyle=1;" vertex="1" parent="2hIha3AuT46qeZUcsrXO-1">
          <mxGeometry y="85" width="30" height="30" as="geometry">
            <mxRectangle width="30" height="30" as="alternateBounds" />
          </mxGeometry>
        </mxCell>
        <mxCell id="2hIha3AuT46qeZUcsrXO-15" value="" style="edgeStyle=entityRelationEdgeStyle;fontSize=12;html=1;endArrow=ERmandOne;startArrow=ERmandOne;rounded=0;startSize=8;endSize=8;curved=1;exitX=1;exitY=0.145;exitDx=0;exitDy=0;exitPerimeter=0;entryX=0;entryY=0.5;entryDx=0;entryDy=0;" edge="1" parent="1" source="2hIha3AuT46qeZUcsrXO-6" target="2hIha3AuT46qeZUcsrXO-19">
          <mxGeometry width="100" height="100" relative="1" as="geometry">
            <mxPoint x="430" y="380" as="sourcePoint" />
            <mxPoint x="530" y="280" as="targetPoint" />
            <Array as="points">
              <mxPoint x="80" y="450" />
            </Array>
          </mxGeometry>
        </mxCell>
        <mxCell id="2hIha3AuT46qeZUcsrXO-16" value="" style="edgeStyle=entityRelationEdgeStyle;fontSize=12;html=1;endArrow=ERzeroToOne;endFill=1;rounded=0;startSize=8;endSize=8;curved=1;entryX=0.998;entryY=0.356;entryDx=0;entryDy=0;entryPerimeter=0;exitX=0;exitY=0.5;exitDx=0;exitDy=0;" edge="1" parent="1" source="2hIha3AuT46qeZUcsrXO-55" target="2hIha3AuT46qeZUcsrXO-6">
          <mxGeometry width="100" height="100" relative="1" as="geometry">
            <mxPoint x="790" y="440" as="sourcePoint" />
            <mxPoint x="820" y="280" as="targetPoint" />
            <Array as="points">
              <mxPoint x="700" y="520" />
              <mxPoint x="940" y="470" />
              <mxPoint x="810" y="380" />
            </Array>
          </mxGeometry>
        </mxCell>
        <mxCell id="2hIha3AuT46qeZUcsrXO-17" value="" style="group" vertex="1" connectable="0" parent="1">
          <mxGeometry x="650" y="-90" width="400" height="230.00085714285717" as="geometry" />
        </mxCell>
        <mxCell id="2hIha3AuT46qeZUcsrXO-18" value="문서(documents)" style="shape=table;startSize=30;container=1;collapsible=1;childLayout=tableLayout;fixedRows=1;rowLines=0;fontStyle=1;align=center;resizeLast=1;" vertex="1" parent="2hIha3AuT46qeZUcsrXO-17">
          <mxGeometry width="400" height="230" as="geometry" />
        </mxCell>
        <mxCell id="2hIha3AuT46qeZUcsrXO-19" value="" style="shape=partialRectangle;collapsible=0;dropTarget=0;pointerEvents=0;fillColor=none;points=[[0,0.5],[1,0.5]];portConstraint=eastwest;top=0;left=0;right=0;bottom=1;" vertex="1" parent="2hIha3AuT46qeZUcsrXO-18">
          <mxGeometry y="30" width="400" height="30" as="geometry" />
        </mxCell>
        <mxCell id="2hIha3AuT46qeZUcsrXO-20" value="PK" style="shape=partialRectangle;overflow=hidden;connectable=0;fillColor=none;top=0;left=0;bottom=0;right=0;fontStyle=1;" vertex="1" parent="2hIha3AuT46qeZUcsrXO-19">
          <mxGeometry width="30" height="30" as="geometry">
            <mxRectangle width="30" height="30" as="alternateBounds" />
          </mxGeometry>
        </mxCell>
        <mxCell id="2hIha3AuT46qeZUcsrXO-21" value="id int auto_increment NOT NULL(문서 고유 번호)" style="shape=partialRectangle;overflow=hidden;connectable=0;fillColor=none;top=0;left=0;bottom=0;right=0;align=left;spacingLeft=6;fontStyle=1;" vertex="1" parent="2hIha3AuT46qeZUcsrXO-19">
          <mxGeometry x="30" width="370" height="30" as="geometry">
            <mxRectangle width="370" height="30" as="alternateBounds" />
          </mxGeometry>
        </mxCell>
        <mxCell id="2hIha3AuT46qeZUcsrXO-22" value="" style="shape=partialRectangle;collapsible=0;dropTarget=0;pointerEvents=0;fillColor=none;points=[[0,0.5],[1,0.5]];portConstraint=eastwest;top=0;left=0;right=0;bottom=0;" vertex="1" parent="2hIha3AuT46qeZUcsrXO-18">
          <mxGeometry y="60" width="400" height="170" as="geometry" />
        </mxCell>
        <mxCell id="2hIha3AuT46qeZUcsrXO-23" value="" style="shape=partialRectangle;overflow=hidden;connectable=0;fillColor=none;top=0;left=0;bottom=0;right=0;" vertex="1" parent="2hIha3AuT46qeZUcsrXO-22">
          <mxGeometry width="30" height="170" as="geometry">
            <mxRectangle width="30" height="170" as="alternateBounds" />
          </mxGeometry>
        </mxCell>
        <mxCell id="2hIha3AuT46qeZUcsrXO-24" value="" style="shape=partialRectangle;overflow=hidden;connectable=0;fillColor=none;top=0;left=0;bottom=0;right=0;align=left;spacingLeft=6;" vertex="1" parent="2hIha3AuT46qeZUcsrXO-22">
          <mxGeometry x="30" width="370" height="170" as="geometry">
            <mxRectangle width="370" height="170" as="alternateBounds" />
          </mxGeometry>
        </mxCell>
        <mxCell id="2hIha3AuT46qeZUcsrXO-25" value="title varchar(50) NOT NULL(문서 제목)" style="shape=partialRectangle;overflow=hidden;connectable=0;fillColor=none;top=0;left=0;bottom=0;right=0;align=left;spacingLeft=6;" vertex="1" parent="2hIha3AuT46qeZUcsrXO-17">
          <mxGeometry x="30" y="60.45714285714287" width="220" height="30.228571428571435" as="geometry">
            <mxRectangle width="220" height="30" as="alternateBounds" />
          </mxGeometry>
        </mxCell>
        <mxCell id="2hIha3AuT46qeZUcsrXO-26" value="content TEXT NOT NULL(문서 내용)" style="shape=partialRectangle;overflow=hidden;connectable=0;fillColor=none;top=0;left=0;bottom=0;right=0;align=left;spacingLeft=6;" vertex="1" parent="2hIha3AuT46qeZUcsrXO-17">
          <mxGeometry x="30" y="80.60952380952381" width="250" height="30.228571428571435" as="geometry">
            <mxRectangle width="220" height="30" as="alternateBounds" />
          </mxGeometry>
        </mxCell>
        <mxCell id="2hIha3AuT46qeZUcsrXO-27" value="created_at DATETIME NOT NULL(요청일)" style="shape=partialRectangle;overflow=hidden;connectable=0;fillColor=none;top=0;left=0;bottom=0;right=0;align=left;spacingLeft=6;" vertex="1" parent="2hIha3AuT46qeZUcsrXO-17">
          <mxGeometry x="30" y="120.91428571428574" width="250" height="30.228571428571435" as="geometry">
            <mxRectangle width="220" height="30" as="alternateBounds" />
          </mxGeometry>
        </mxCell>
        <mxCell id="2hIha3AuT46qeZUcsrXO-28" value="created_by int NOT NULL(요청자 고유 번호)" style="shape=partialRectangle;overflow=hidden;connectable=0;fillColor=none;top=0;left=0;bottom=0;right=0;align=left;spacingLeft=6;" vertex="1" parent="2hIha3AuT46qeZUcsrXO-17">
          <mxGeometry x="30" y="141.0666666666667" width="250" height="30.228571428571435" as="geometry">
            <mxRectangle width="220" height="30" as="alternateBounds" />
          </mxGeometry>
        </mxCell>
        <mxCell id="2hIha3AuT46qeZUcsrXO-29" value="FK" style="shape=partialRectangle;overflow=hidden;connectable=0;fillColor=none;top=0;left=0;bottom=0;right=0;fontStyle=1;" vertex="1" parent="2hIha3AuT46qeZUcsrXO-17">
          <mxGeometry y="141.06228571428574" width="30" height="30.228571428571435" as="geometry">
            <mxRectangle width="30" height="30" as="alternateBounds" />
          </mxGeometry>
        </mxCell>
        <mxCell id="2hIha3AuT46qeZUcsrXO-30" value="status ENUM: &#39;완료&#39;, &#39;보류&#39;,&#39;요청&#39;,&#39;임시저장&#39; NOT NULL (문서 상태)" style="shape=partialRectangle;overflow=hidden;connectable=0;fillColor=none;top=0;left=0;bottom=0;right=0;align=left;spacingLeft=6;" vertex="1" parent="2hIha3AuT46qeZUcsrXO-17">
          <mxGeometry x="30" y="100.7584" width="370" height="30.2312" as="geometry">
            <mxRectangle width="300" height="30" as="alternateBounds" />
          </mxGeometry>
        </mxCell>
        <mxCell id="2hIha3AuT46qeZUcsrXO-31" value="updated_at DATETIME NOT NULL(재요청일)" style="shape=partialRectangle;overflow=hidden;connectable=0;fillColor=none;top=0;left=0;bottom=0;right=0;align=left;spacingLeft=6;" vertex="1" parent="2hIha3AuT46qeZUcsrXO-17">
          <mxGeometry x="30" y="161.21904761904761" width="250" height="30.228571428571435" as="geometry">
            <mxRectangle width="220" height="30" as="alternateBounds" />
          </mxGeometry>
        </mxCell>
        <mxCell id="2hIha3AuT46qeZUcsrXO-32" value="임시 저장일" style="shape=partialRectangle;overflow=hidden;connectable=0;fillColor=none;top=0;left=0;bottom=0;right=0;align=left;spacingLeft=6;" vertex="1" parent="2hIha3AuT46qeZUcsrXO-17">
          <mxGeometry x="30" y="181.3714285714286" width="320" height="30.228571428571435" as="geometry">
            <mxRectangle width="320" height="30" as="alternateBounds" />
          </mxGeometry>
        </mxCell>
        <mxCell id="2hIha3AuT46qeZUcsrXO-33" value="FK" style="shape=partialRectangle;overflow=hidden;connectable=0;fillColor=none;top=0;left=0;bottom=0;right=0;fontStyle=1;" vertex="1" parent="2hIha3AuT46qeZUcsrXO-17">
          <mxGeometry y="199.77228571428574" width="30" height="30.228571428571435" as="geometry">
            <mxRectangle width="30" height="30" as="alternateBounds" />
          </mxGeometry>
        </mxCell>
        <mxCell id="2hIha3AuT46qeZUcsrXO-34" value="양식 번호" style="shape=partialRectangle;overflow=hidden;connectable=0;fillColor=none;top=0;left=0;bottom=0;right=0;align=left;spacingLeft=6;" vertex="1" parent="2hIha3AuT46qeZUcsrXO-17">
          <mxGeometry x="30" y="199.7714285714286" width="320" height="30.228571428571435" as="geometry">
            <mxRectangle width="320" height="30" as="alternateBounds" />
          </mxGeometry>
        </mxCell>
        <mxCell id="2hIha3AuT46qeZUcsrXO-35" value="" style="group" vertex="1" connectable="0" parent="1">
          <mxGeometry x="140" y="180" width="340" height="210" as="geometry" />
        </mxCell>
        <mxCell id="2hIha3AuT46qeZUcsrXO-36" value="결재 요청(request_approval)" style="shape=table;startSize=30;container=1;collapsible=1;childLayout=tableLayout;fixedRows=1;rowLines=0;fontStyle=1;align=center;resizeLast=1;" vertex="1" parent="2hIha3AuT46qeZUcsrXO-35">
          <mxGeometry width="340" height="210" as="geometry" />
        </mxCell>
        <mxCell id="2hIha3AuT46qeZUcsrXO-37" value="" style="shape=partialRectangle;collapsible=0;dropTarget=0;pointerEvents=0;fillColor=none;points=[[0,0.5],[1,0.5]];portConstraint=eastwest;top=0;left=0;right=0;bottom=1;" vertex="1" parent="2hIha3AuT46qeZUcsrXO-36">
          <mxGeometry y="30" width="340" height="30" as="geometry" />
        </mxCell>
        <mxCell id="2hIha3AuT46qeZUcsrXO-38" value="PK" style="shape=partialRectangle;overflow=hidden;connectable=0;fillColor=none;top=0;left=0;bottom=0;right=0;fontStyle=1;" vertex="1" parent="2hIha3AuT46qeZUcsrXO-37">
          <mxGeometry width="30" height="30" as="geometry">
            <mxRectangle width="30" height="30" as="alternateBounds" />
          </mxGeometry>
        </mxCell>
        <mxCell id="2hIha3AuT46qeZUcsrXO-39" value="id int auto_increment NOT NULL(결재 요청 번호)" style="shape=partialRectangle;overflow=hidden;connectable=0;fillColor=none;top=0;left=0;bottom=0;right=0;align=left;spacingLeft=6;fontStyle=1;" vertex="1" parent="2hIha3AuT46qeZUcsrXO-37">
          <mxGeometry x="30" width="310" height="30" as="geometry">
            <mxRectangle width="310" height="30" as="alternateBounds" />
          </mxGeometry>
        </mxCell>
        <mxCell id="2hIha3AuT46qeZUcsrXO-40" value="" style="shape=partialRectangle;collapsible=0;dropTarget=0;pointerEvents=0;fillColor=none;points=[[0,0.5],[1,0.5]];portConstraint=eastwest;top=0;left=0;right=0;bottom=0;" vertex="1" parent="2hIha3AuT46qeZUcsrXO-36">
          <mxGeometry y="60" width="340" height="150" as="geometry" />
        </mxCell>
        <mxCell id="2hIha3AuT46qeZUcsrXO-41" value="" style="shape=partialRectangle;overflow=hidden;connectable=0;fillColor=none;top=0;left=0;bottom=0;right=0;" vertex="1" parent="2hIha3AuT46qeZUcsrXO-40">
          <mxGeometry width="30" height="150" as="geometry">
            <mxRectangle width="30" height="150" as="alternateBounds" />
          </mxGeometry>
        </mxCell>
        <mxCell id="2hIha3AuT46qeZUcsrXO-42" value="" style="shape=partialRectangle;overflow=hidden;connectable=0;fillColor=none;top=0;left=0;bottom=0;right=0;align=left;spacingLeft=6;" vertex="1" parent="2hIha3AuT46qeZUcsrXO-40">
          <mxGeometry x="30" width="310" height="150" as="geometry">
            <mxRectangle width="310" height="150" as="alternateBounds" />
          </mxGeometry>
        </mxCell>
        <mxCell id="2hIha3AuT46qeZUcsrXO-43" value="doc_id int NOT NULL(문서 고유 ID)" style="shape=partialRectangle;overflow=hidden;connectable=0;fillColor=none;top=0;left=0;bottom=0;right=0;align=left;spacingLeft=6;" vertex="1" parent="2hIha3AuT46qeZUcsrXO-35">
          <mxGeometry x="30" y="60" width="220" height="30" as="geometry">
            <mxRectangle width="220" height="30" as="alternateBounds" />
          </mxGeometry>
        </mxCell>
        <mxCell id="2hIha3AuT46qeZUcsrXO-44" value="요청일" style="shape=partialRectangle;overflow=hidden;connectable=0;fillColor=none;top=0;left=0;bottom=0;right=0;align=left;spacingLeft=6;" vertex="1" parent="2hIha3AuT46qeZUcsrXO-35">
          <mxGeometry x="30" y="100" width="250" height="30" as="geometry">
            <mxRectangle width="220" height="30" as="alternateBounds" />
          </mxGeometry>
        </mxCell>
        <mxCell id="2hIha3AuT46qeZUcsrXO-45" value="" style="shape=partialRectangle;overflow=hidden;connectable=0;fillColor=none;top=0;left=0;bottom=0;right=0;align=left;spacingLeft=6;" vertex="1" parent="2hIha3AuT46qeZUcsrXO-35">
          <mxGeometry x="30" y="160" width="250" height="30" as="geometry">
            <mxRectangle width="220" height="30" as="alternateBounds" />
          </mxGeometry>
        </mxCell>
        <mxCell id="2hIha3AuT46qeZUcsrXO-46" value="FK" style="shape=partialRectangle;overflow=hidden;connectable=0;fillColor=none;top=0;left=0;bottom=0;right=0;fontStyle=1;" vertex="1" parent="2hIha3AuT46qeZUcsrXO-35">
          <mxGeometry y="60" width="30" height="30" as="geometry">
            <mxRectangle width="30" height="30" as="alternateBounds" />
          </mxGeometry>
        </mxCell>
        <mxCell id="2hIha3AuT46qeZUcsrXO-47" value="요청자 번호" style="shape=partialRectangle;overflow=hidden;connectable=0;fillColor=none;top=0;left=0;bottom=0;right=0;align=left;spacingLeft=6;" vertex="1" parent="2hIha3AuT46qeZUcsrXO-35">
          <mxGeometry x="30" y="80" width="250" height="30" as="geometry">
            <mxRectangle width="220" height="30" as="alternateBounds" />
          </mxGeometry>
        </mxCell>
        <mxCell id="2hIha3AuT46qeZUcsrXO-48" value="(재요청 시) 원본 결재 요청 ID" style="shape=partialRectangle;overflow=hidden;connectable=0;fillColor=none;top=0;left=0;bottom=0;right=0;align=left;spacingLeft=6;" vertex="1" parent="2hIha3AuT46qeZUcsrXO-35">
          <mxGeometry x="25" y="130" width="290" height="20" as="geometry">
            <mxRectangle width="220" height="30" as="alternateBounds" />
          </mxGeometry>
        </mxCell>
        <mxCell id="2hIha3AuT46qeZUcsrXO-49" value="FK" style="shape=partialRectangle;overflow=hidden;connectable=0;fillColor=none;top=0;left=0;bottom=0;right=0;fontStyle=1;" vertex="1" parent="2hIha3AuT46qeZUcsrXO-35">
          <mxGeometry y="125" width="30" height="30" as="geometry">
            <mxRectangle width="30" height="30" as="alternateBounds" />
          </mxGeometry>
        </mxCell>
        <mxCell id="2hIha3AuT46qeZUcsrXO-50" value="FK" style="shape=partialRectangle;overflow=hidden;connectable=0;fillColor=none;top=0;left=0;bottom=0;right=0;fontStyle=1;" vertex="1" parent="2hIha3AuT46qeZUcsrXO-35">
          <mxGeometry y="80" width="30" height="30" as="geometry">
            <mxRectangle width="30" height="30" as="alternateBounds" />
          </mxGeometry>
        </mxCell>
        <mxCell id="2hIha3AuT46qeZUcsrXO-51" value="" style="edgeStyle=entityRelationEdgeStyle;fontSize=12;html=1;endArrow=ERone;endFill=1;rounded=0;exitX=1.001;exitY=0.096;exitDx=0;exitDy=0;exitPerimeter=0;entryX=0;entryY=0.5;entryDx=0;entryDy=0;" edge="1" parent="1" source="2hIha3AuT46qeZUcsrXO-40" target="2hIha3AuT46qeZUcsrXO-19">
          <mxGeometry width="100" height="100" relative="1" as="geometry">
            <mxPoint x="493" y="285" as="sourcePoint" />
            <mxPoint x="660" y="60" as="targetPoint" />
          </mxGeometry>
        </mxCell>
        <mxCell id="2hIha3AuT46qeZUcsrXO-52" value="" style="endArrow=none;html=1;rounded=0;exitX=1;exitY=0.5;exitDx=0;exitDy=0;" edge="1" parent="1" source="2hIha3AuT46qeZUcsrXO-37">
          <mxGeometry width="50" height="50" relative="1" as="geometry">
            <mxPoint x="590" y="210" as="sourcePoint" />
            <mxPoint x="500" y="340" as="targetPoint" />
            <Array as="points">
              <mxPoint x="500" y="225" />
            </Array>
          </mxGeometry>
        </mxCell>
        <mxCell id="2hIha3AuT46qeZUcsrXO-53" value="" style="endArrow=classic;html=1;rounded=0;entryX=1.001;entryY=0.686;entryDx=0;entryDy=0;entryPerimeter=0;" edge="1" parent="1" target="2hIha3AuT46qeZUcsrXO-40">
          <mxGeometry width="50" height="50" relative="1" as="geometry">
            <mxPoint x="500" y="340" as="sourcePoint" />
            <mxPoint x="540" y="290" as="targetPoint" />
          </mxGeometry>
        </mxCell>
        <mxCell id="2hIha3AuT46qeZUcsrXO-54" value="사용자 정보(user information)" style="shape=table;startSize=30;container=1;collapsible=1;childLayout=tableLayout;fixedRows=1;rowLines=0;fontStyle=1;align=center;resizeLast=1;" vertex="1" parent="1">
          <mxGeometry x="650" y="230" width="360" height="170" as="geometry" />
        </mxCell>
        <mxCell id="2hIha3AuT46qeZUcsrXO-55" value="" style="shape=partialRectangle;collapsible=0;dropTarget=0;pointerEvents=0;fillColor=none;points=[[0,0.5],[1,0.5]];portConstraint=eastwest;top=0;left=0;right=0;bottom=1;" vertex="1" parent="2hIha3AuT46qeZUcsrXO-54">
          <mxGeometry y="30" width="360" height="30" as="geometry" />
        </mxCell>
        <mxCell id="2hIha3AuT46qeZUcsrXO-56" value="PK" style="shape=partialRectangle;overflow=hidden;connectable=0;fillColor=none;top=0;left=0;bottom=0;right=0;fontStyle=1;" vertex="1" parent="2hIha3AuT46qeZUcsrXO-55">
          <mxGeometry width="30" height="30" as="geometry">
            <mxRectangle width="30" height="30" as="alternateBounds" />
          </mxGeometry>
        </mxCell>
        <mxCell id="2hIha3AuT46qeZUcsrXO-57" value="user_id int auto_increment NOT NULL(사용자 고유 번호)" style="shape=partialRectangle;overflow=hidden;connectable=0;fillColor=none;top=0;left=0;bottom=0;right=0;align=left;spacingLeft=6;fontStyle=1;" vertex="1" parent="2hIha3AuT46qeZUcsrXO-55">
          <mxGeometry x="30" width="330" height="30" as="geometry">
            <mxRectangle width="330" height="30" as="alternateBounds" />
          </mxGeometry>
        </mxCell>
        <mxCell id="2hIha3AuT46qeZUcsrXO-58" value="" style="shape=partialRectangle;collapsible=0;dropTarget=0;pointerEvents=0;fillColor=none;points=[[0,0.5],[1,0.5]];portConstraint=eastwest;top=0;left=0;right=0;bottom=0;" vertex="1" parent="2hIha3AuT46qeZUcsrXO-54">
          <mxGeometry y="60" width="360" height="80" as="geometry" />
        </mxCell>
        <mxCell id="2hIha3AuT46qeZUcsrXO-59" value="" style="shape=partialRectangle;overflow=hidden;connectable=0;fillColor=none;top=0;left=0;bottom=0;right=0;" vertex="1" parent="2hIha3AuT46qeZUcsrXO-58">
          <mxGeometry width="30" height="80" as="geometry">
            <mxRectangle width="30" height="80" as="alternateBounds" />
          </mxGeometry>
        </mxCell>
        <mxCell id="2hIha3AuT46qeZUcsrXO-60" value="" style="shape=partialRectangle;overflow=hidden;connectable=0;fillColor=none;top=0;left=0;bottom=0;right=0;align=left;spacingLeft=6;" vertex="1" parent="2hIha3AuT46qeZUcsrXO-58">
          <mxGeometry x="30" width="330" height="80" as="geometry">
            <mxRectangle width="330" height="80" as="alternateBounds" />
          </mxGeometry>
        </mxCell>
        <mxCell id="2hIha3AuT46qeZUcsrXO-61" value="" style="shape=partialRectangle;collapsible=0;dropTarget=0;pointerEvents=0;fillColor=none;points=[[0,0.5],[1,0.5]];portConstraint=eastwest;top=0;left=0;right=0;bottom=0;" vertex="1" parent="2hIha3AuT46qeZUcsrXO-54">
          <mxGeometry y="140" width="360" height="30" as="geometry" />
        </mxCell>
        <mxCell id="2hIha3AuT46qeZUcsrXO-62" value="" style="shape=partialRectangle;overflow=hidden;connectable=0;fillColor=none;top=0;left=0;bottom=0;right=0;" vertex="1" parent="2hIha3AuT46qeZUcsrXO-61">
          <mxGeometry width="30" height="30" as="geometry">
            <mxRectangle width="30" height="30" as="alternateBounds" />
          </mxGeometry>
        </mxCell>
        <mxCell id="2hIha3AuT46qeZUcsrXO-63" value="" style="shape=partialRectangle;overflow=hidden;connectable=0;fillColor=none;top=0;left=0;bottom=0;right=0;align=left;spacingLeft=6;" vertex="1" parent="2hIha3AuT46qeZUcsrXO-61">
          <mxGeometry x="30" width="330" height="30" as="geometry">
            <mxRectangle width="330" height="30" as="alternateBounds" />
          </mxGeometry>
        </mxCell>
        <mxCell id="2hIha3AuT46qeZUcsrXO-64" value="username varchar(15) NOT NULL(사용자 이름)" style="shape=partialRectangle;overflow=hidden;connectable=0;fillColor=none;top=0;left=0;bottom=0;right=0;align=left;spacingLeft=6;" vertex="1" parent="1">
          <mxGeometry x="680.8571428571429" y="285" width="329.1428571428571" height="30" as="geometry">
            <mxRectangle width="320" height="30" as="alternateBounds" />
          </mxGeometry>
        </mxCell>
        <mxCell id="2hIha3AuT46qeZUcsrXO-65" value="email varchar(30) NOT NULL (사용자 이메일)" style="shape=partialRectangle;overflow=hidden;connectable=0;fillColor=none;top=0;left=0;bottom=0;right=0;align=left;spacingLeft=6;" vertex="1" parent="1">
          <mxGeometry x="680.8571428571429" y="305" width="329.1428571428571" height="30" as="geometry">
            <mxRectangle width="320" height="30" as="alternateBounds" />
          </mxGeometry>
        </mxCell>
        <mxCell id="2hIha3AuT46qeZUcsrXO-66" value="role ENUM: &#39;admin&#39;, &#39;user&#39; NOT NULL (사용자 권한)" style="shape=partialRectangle;overflow=hidden;connectable=0;fillColor=none;top=0;left=0;bottom=0;right=0;align=left;spacingLeft=6;" vertex="1" parent="1">
          <mxGeometry x="680.8571428571429" y="325" width="329.1428571428571" height="30" as="geometry">
            <mxRectangle width="320" height="30" as="alternateBounds" />
          </mxGeometry>
        </mxCell>
        <mxCell id="2hIha3AuT46qeZUcsrXO-67" value="" style="endArrow=classic;html=1;rounded=0;entryX=0.998;entryY=0.246;entryDx=0;entryDy=0;entryPerimeter=0;exitX=0;exitY=0.5;exitDx=0;exitDy=0;" edge="1" parent="1" source="2hIha3AuT46qeZUcsrXO-55" target="2hIha3AuT46qeZUcsrXO-40">
          <mxGeometry width="50" height="50" relative="1" as="geometry">
            <mxPoint x="560" y="280" as="sourcePoint" />
            <mxPoint x="650" y="250" as="targetPoint" />
          </mxGeometry>
        </mxCell>
        <mxCell id="2hIha3AuT46qeZUcsrXO-68" value="" style="endArrow=classic;html=1;rounded=0;exitX=0;exitY=0.5;exitDx=0;exitDy=0;entryX=1;entryY=0.941;entryDx=0;entryDy=0;entryPerimeter=0;" edge="1" parent="1" source="2hIha3AuT46qeZUcsrXO-71" target="2hIha3AuT46qeZUcsrXO-22">
          <mxGeometry width="50" height="50" relative="1" as="geometry">
            <mxPoint x="660" y="200" as="sourcePoint" />
            <mxPoint x="710" y="150" as="targetPoint" />
          </mxGeometry>
        </mxCell>
        <mxCell id="2hIha3AuT46qeZUcsrXO-69" value="" style="group" vertex="1" connectable="0" parent="1">
          <mxGeometry x="1100" y="80" width="350" height="150" as="geometry" />
        </mxCell>
        <mxCell id="2hIha3AuT46qeZUcsrXO-70" value="양식(Templates)" style="shape=table;startSize=30;container=1;collapsible=1;childLayout=tableLayout;fixedRows=1;rowLines=0;fontStyle=1;align=center;resizeLast=1;" vertex="1" parent="2hIha3AuT46qeZUcsrXO-69">
          <mxGeometry width="350" height="150" as="geometry" />
        </mxCell>
        <mxCell id="2hIha3AuT46qeZUcsrXO-71" value="" style="shape=partialRectangle;collapsible=0;dropTarget=0;pointerEvents=0;fillColor=none;points=[[0,0.5],[1,0.5]];portConstraint=eastwest;top=0;left=0;right=0;bottom=1;" vertex="1" parent="2hIha3AuT46qeZUcsrXO-70">
          <mxGeometry y="30" width="350" height="30" as="geometry" />
        </mxCell>
        <mxCell id="2hIha3AuT46qeZUcsrXO-72" value="PK" style="shape=partialRectangle;overflow=hidden;connectable=0;fillColor=none;top=0;left=0;bottom=0;right=0;fontStyle=1;" vertex="1" parent="2hIha3AuT46qeZUcsrXO-71">
          <mxGeometry width="30" height="30" as="geometry">
            <mxRectangle width="30" height="30" as="alternateBounds" />
          </mxGeometry>
        </mxCell>
        <mxCell id="2hIha3AuT46qeZUcsrXO-73" value="양식 번호" style="shape=partialRectangle;overflow=hidden;connectable=0;fillColor=none;top=0;left=0;bottom=0;right=0;align=left;spacingLeft=6;fontStyle=1;" vertex="1" parent="2hIha3AuT46qeZUcsrXO-71">
          <mxGeometry x="30" width="320" height="30" as="geometry">
            <mxRectangle width="320" height="30" as="alternateBounds" />
          </mxGeometry>
        </mxCell>
        <mxCell id="2hIha3AuT46qeZUcsrXO-74" value="" style="shape=partialRectangle;collapsible=0;dropTarget=0;pointerEvents=0;fillColor=none;points=[[0,0.5],[1,0.5]];portConstraint=eastwest;top=0;left=0;right=0;bottom=0;" vertex="1" parent="2hIha3AuT46qeZUcsrXO-70">
          <mxGeometry y="60" width="350" height="90" as="geometry" />
        </mxCell>
        <mxCell id="2hIha3AuT46qeZUcsrXO-75" value="" style="shape=partialRectangle;overflow=hidden;connectable=0;fillColor=none;top=0;left=0;bottom=0;right=0;" vertex="1" parent="2hIha3AuT46qeZUcsrXO-74">
          <mxGeometry width="30" height="90" as="geometry">
            <mxRectangle width="30" height="90" as="alternateBounds" />
          </mxGeometry>
        </mxCell>
        <mxCell id="2hIha3AuT46qeZUcsrXO-76" value="" style="shape=partialRectangle;overflow=hidden;connectable=0;fillColor=none;top=0;left=0;bottom=0;right=0;align=left;spacingLeft=6;" vertex="1" parent="2hIha3AuT46qeZUcsrXO-74">
          <mxGeometry x="30" width="320" height="90" as="geometry">
            <mxRectangle width="320" height="90" as="alternateBounds" />
          </mxGeometry>
        </mxCell>
        <mxCell id="2hIha3AuT46qeZUcsrXO-77" value="양식 내용" style="shape=partialRectangle;overflow=hidden;connectable=0;fillColor=none;top=0;left=0;bottom=0;right=0;align=left;spacingLeft=6;" vertex="1" parent="2hIha3AuT46qeZUcsrXO-69">
          <mxGeometry x="30" y="80" width="320" height="25" as="geometry">
            <mxRectangle width="320" height="30" as="alternateBounds" />
          </mxGeometry>
        </mxCell>
        <mxCell id="2hIha3AuT46qeZUcsrXO-78" value="양식 추가일" style="shape=partialRectangle;overflow=hidden;connectable=0;fillColor=none;top=0;left=0;bottom=0;right=0;align=left;spacingLeft=6;" vertex="1" parent="2hIha3AuT46qeZUcsrXO-69">
          <mxGeometry x="30" y="105" width="320" height="15" as="geometry">
            <mxRectangle width="320" height="30" as="alternateBounds" />
          </mxGeometry>
        </mxCell>
        <mxCell id="2hIha3AuT46qeZUcsrXO-79" value="양식 이름" style="shape=partialRectangle;overflow=hidden;connectable=0;fillColor=none;top=0;left=0;bottom=0;right=0;align=left;spacingLeft=6;" vertex="1" parent="2hIha3AuT46qeZUcsrXO-69">
          <mxGeometry x="30" y="60" width="320" height="30" as="geometry">
            <mxRectangle width="320" height="30" as="alternateBounds" />
          </mxGeometry>
        </mxCell>
        <mxCell id="2hIha3AuT46qeZUcsrXO-80" value="양식 수정일" style="shape=partialRectangle;overflow=hidden;connectable=0;fillColor=none;top=0;left=0;bottom=0;right=0;align=left;spacingLeft=6;" vertex="1" parent="2hIha3AuT46qeZUcsrXO-69">
          <mxGeometry x="30" y="122.5" width="320" height="15" as="geometry">
            <mxRectangle width="320" height="30" as="alternateBounds" />
          </mxGeometry>
        </mxCell>
      </root>
    </mxGraphModel>
  </diagram>
</mxfile>
